# xmcd
# 
# Track frame offsets:
#     150
#     16375
#     27452
#     42282
#     57105
#     69087
#     79815
#     97092
#     108545
#     121300
#     131882
#     144237
#     156182
#     177015
#     190227
# 
# Disc length: 2713
# 
# Revision: 7
# Processed by: cddbd v1.5.2PL0 Copyright (c) Steve Scherf et al.
# Submitted via: fre:ac v1.0.31
# 
DISCID=c90a970f
DTITLE=Various Artist - Classic Country - TL 626-04 - 1970 - 1974 - CD 2
DYEAR=1999
DGENRE=Country
TTITLE0=Billie Jo Spears - Blanket on the ground
TTITLE1=Glen Campbell - It's only make believe
TTITLE2=Ray Stevens - The streak
TTITLE3=Olivia Newton-John - Banks of the Ohio
TTITLE4=Johnny Cash - What is truth
TTITLE5=Dolly Parton - Love is like a butterfly
TTITLE6=Ray Price - For the good times
TTITLE7=Donna Fargo - The happiest girl in the whole U.S.A.
TTITLE8=Conway Twitty - I can't stop loving you
TTITLE9=Sonny James - Empty arms
TTITLE10=Merle Haggard - If we make it through December
TTITLE11=Loretta Lynn - One's on the way
TTITLE12=Bobby Goldsboro - Summer (the first time)
TTITLE13=Charlie Rich - Behind closed doors
TTITLE14=Lynn Anderson - Rose garden
EXTD=TIME LIFE MUSIC
EXTT0=
EXTT1=
EXTT2=
EXTT3=
EXTT4=
EXTT5=
EXTT6=
EXTT7=
EXTT8=
EXTT9=
EXTT10=
EXTT11=
EXTT12=
EXTT13=
EXTT14=
PLAYORDER=
